Coordinates
version=1
nRows=16
nColumns=14
inDegrees=yes

Units are S.I. units (second, meters, Newtons, ...)
Angles are in degrees.

endheader
time	pelvis_tilt	pelvis_list	pelvis_rotation	pelvis_tx	pelvis_ty	pelvis_tz	hip_flexion_r	hip_adduction_r	hip_rotation_r	knee_angle_r	ankle_angle_r	subtalar_angle_r	mtp_angle_r
      0.00000000	    -14.11323372	     -2.50742434	      8.78314699	     -0.66201686	      0.84045005	     -0.09042611	     41.74517657	      1.11243872	     -8.28905051	    -10.00017547	     -3.73780897	     -3.23912657	      0.00000000
      0.01000000	    -13.76261973	     -2.67651785	      8.33000486	     -0.64444712	      0.84072018	     -0.08906286	     41.16281771	      1.83148051	     -7.38631227	    -11.13481825	     -6.57031347	     -3.89377158	      0.00000000
      0.02000000	    -13.60741455	     -2.95349091	      7.86258745	     -0.62696380	      0.84134658	     -0.08728773	     40.67170911	      2.67042058	     -6.28402879	    -12.08291652	     -9.14485191	     -4.87105466	      0.00000000
      0.03000000	    -13.57866536	     -3.28698021	      7.34733980	     -0.60976482	      0.84225428	     -0.08512723	     40.39790559	      3.56109970	     -5.59921593	    -13.54129933	     -9.71772228	     -4.11156970	      0.00000000
      0.04000000	    -13.48441624	     -3.63137283	      6.78650317	     -0.59271391	      0.84344251	     -0.08278938	     40.17626164	      4.43864919	     -5.10204370	    -15.30185298	    -10.08327258	     -3.48338249	      0.00000000
      0.05000000	    -13.24830883	     -4.00847868	      6.17408249	     -0.57587737	      0.84492405	     -0.08058606	     39.83501471	      5.38017110	     -4.51443760	    -17.07608929	    -10.56351157	     -4.08690039	      0.00000000
      0.06000000	    -13.01504943	     -4.54652554	      5.69214129	     -0.55962422	      0.84629935	     -0.07877306	     39.51198933	      6.31700298	     -4.51082872	    -18.89382911	     -9.96317849	     -4.28171588	      0.00000000
      0.07000000	    -12.76061447	     -5.01075015	      5.12445270	     -0.54379606	      0.84770435	     -0.07704535	     39.06811463	      7.22043104	     -4.64246693	    -20.65004838	     -8.24823489	     -3.60954540	      0.00000000
      0.08000000	    -12.54481839	     -5.44349276	      4.47161323	     -0.52844567	      0.84902993	     -0.07541075	     38.48016273	      8.12181584	     -4.77340365	    -22.03372067	     -6.39174048	     -2.77293238	      0.00000000
      0.09000000	    -12.39021169	     -5.87467368	      3.81366122	     -0.51366499	      0.85016553	     -0.07393015	     37.73450438	      8.97221635	     -5.02147408	    -22.92562287	     -4.79448655	     -2.17631496	      0.00000000
      0.10000000	    -12.30926401	     -6.35438308	      3.16487623	     -0.49935182	      0.85112106	     -0.07240481	     36.86152765	      9.84777398	     -5.35914766	    -23.39269078	     -3.15072474	     -1.44430975	      0.00000000
      0.11000000	    -12.29392931	     -6.85081693	      2.56495177	     -0.48539841	      0.85198775	     -0.07079975	     35.89704770	     10.70343121	     -5.76688333	    -23.52515459	     -1.48886701	     -0.55519921	      0.00000000
      0.12000000	    -12.36615955	     -7.27075709	      2.06065834	     -0.47176818	      0.85284938	     -0.06915913	     34.92139596	     11.43456130	     -6.18412126	    -23.44107955	      0.01458663	      0.18010283	      0.00000000
      0.13000000	    -12.49485289	     -7.54168878	      1.64025997	     -0.45834907	      0.85388687	     -0.06750158	     33.91645781	     12.02060862	     -6.43163670	    -23.20848366	      1.40967866	      0.76900686	      0.00000000
      0.14000000	    -12.67360092	     -7.60447268	      1.32172426	     -0.44498180	      0.85529321	     -0.06593913	     32.89261834	     12.41022032	     -6.36452751	    -22.87298534	      2.46221876	      0.97710815	      0.00000000
      0.15000000	    -13.00161017	     -7.54593596	      1.09505962	     -0.43165029	      0.85690088	     -0.06438704	     31.99565055	     12.70568610	     -5.98186531	    -22.50046570	      3.17438287	      0.62623042	      0.00000000
